<svg id="visual" viewBox="0 0 960 540" width="960" height="540" xmlns="http://www.w3.org/2000/svg" xmlns:xlink="http://www.w3.org/1999/xlink" version="1.1"><rect x="0" y="0" width="960" height="540" fill="#fff"></rect><defs><linearGradient id="grad1_0" x1="43.8%" y1="0%" x2="100%" y2="100%"><stop offset="14.444444444444446%" stop-color="#ffffff" stop-opacity="1"></stop><stop offset="85.55555555555554%" stop-color="#ffffff" stop-opacity="1"></stop></linearGradient></defs><defs><linearGradient id="grad2_0" x1="0%" y1="0%" x2="56.3%" y2="100%"><stop offset="14.444444444444446%" stop-color="#ffffff" stop-opacity="1"></stop><stop offset="85.55555555555554%" stop-color="#ffffff" stop-opacity="1"></stop></linearGradient></defs><g transform="translate(960, 0)"><path d="M0 459C-29.8 455 -59.5 451 -88 442.3C-116.4 433.7 -143.6 420.5 -167.2 403.7C-190.9 387 -211 366.7 -235 351.7C-259 336.7 -287 326.9 -309.7 309.7C-332.4 292.5 -349.9 268 -363.4 242.8C-376.8 217.5 -386.2 191.6 -401.9 166.5C-417.6 141.4 -439.6 117.1 -450.2 89.5C-460.8 61.9 -459.9 31 -459 0L0 0Z" fill="#C7F5FE"></path></g><g transform="translate(0, 540)"><path d="M0 -459C29.5 -447.7 59 -436.4 83.3 -418.8C107.7 -401.2 126.9 -377.3 152.7 -368.6C178.5 -360 210.9 -366.6 241.7 -361.7C272.5 -356.8 301.7 -340.5 314.7 -314.7C327.6 -288.8 324.4 -253.4 345.9 -231.1C367.4 -208.8 413.6 -199.6 424.1 -175.7C434.5 -151.7 409.1 -113.1 409 -81.4C408.8 -49.6 433.9 -24.8 459 0L0 0Z" fill="#C7F5FE"></path></g></svg>