<svg id="visual" viewBox="0 0 960 540" width="960" height="540" xmlns="http://www.w3.org/2000/svg" xmlns:xlink="http://www.w3.org/1999/xlink" version="1.1"><rect x="0" y="0" width="960" height="540" fill="#fff"></rect><defs><linearGradient id="grad1_0" x1="43.8%" y1="100%" x2="100%" y2="0%"><stop offset="14.444444444444446%" stop-color="#95ecfd" stop-opacity="1"></stop><stop offset="85.55555555555554%" stop-color="#95ecfd" stop-opacity="1"></stop></linearGradient></defs><defs><linearGradient id="grad1_1" x1="43.8%" y1="100%" x2="100%" y2="0%"><stop offset="14.444444444444446%" stop-color="#95ecfd" stop-opacity="1"></stop><stop offset="85.55555555555554%" stop-color="#cef6fe" stop-opacity="1"></stop></linearGradient></defs><defs><linearGradient id="grad1_2" x1="43.8%" y1="100%" x2="100%" y2="0%"><stop offset="14.444444444444446%" stop-color="#ffffff" stop-opacity="1"></stop><stop offset="85.55555555555554%" stop-color="#cef6fe" stop-opacity="1"></stop></linearGradient></defs><defs><linearGradient id="grad2_0" x1="0%" y1="100%" x2="56.3%" y2="0%"><stop offset="14.444444444444446%" stop-color="#95ecfd" stop-opacity="1"></stop><stop offset="85.55555555555554%" stop-color="#95ecfd" stop-opacity="1"></stop></linearGradient></defs><defs><linearGradient id="grad2_1" x1="0%" y1="100%" x2="56.3%" y2="0%"><stop offset="14.444444444444446%" stop-color="#cef6fe" stop-opacity="1"></stop><stop offset="85.55555555555554%" stop-color="#95ecfd" stop-opacity="1"></stop></linearGradient></defs><defs><linearGradient id="grad2_2" x1="0%" y1="100%" x2="56.3%" y2="0%"><stop offset="14.444444444444446%" stop-color="#cef6fe" stop-opacity="1"></stop><stop offset="85.55555555555554%" stop-color="#ffffff" stop-opacity="1"></stop></linearGradient></defs><g transform="translate(960, 540)"><path d="M-405 0C-379.3 -28.6 -353.6 -57.3 -349.7 -93.7C-345.7 -130.1 -363.4 -174.2 -350.7 -202.5C-338.1 -230.8 -294.9 -243.1 -265.2 -265.2C-235.4 -287.2 -218.9 -319 -192 -332.6C-165.1 -346.1 -127.7 -341.6 -94 -350.6C-60.2 -359.7 -30.1 -382.3 0 -405L0 0Z" fill="#e7faff"></path><path d="M-270 0C-252.9 -19.1 -235.8 -38.2 -233.1 -62.5C-230.5 -86.7 -242.3 -116.2 -233.8 -135C-225.4 -153.8 -196.6 -162.1 -176.8 -176.8C-156.9 -191.5 -145.9 -212.6 -128 -221.7C-110.1 -230.8 -85.1 -227.7 -62.6 -233.8C-40.1 -239.8 -20.1 -254.9 0 -270L0 0Z" fill="#b3f1fe"></path><path d="M-135 0C-126.4 -9.5 -117.9 -19.1 -116.6 -31.2C-115.2 -43.4 -121.1 -58.1 -116.9 -67.5C-112.7 -76.9 -98.3 -81 -88.4 -88.4C-78.5 -95.7 -73 -106.3 -64 -110.9C-55 -115.4 -42.6 -113.9 -31.3 -116.9C-20.1 -119.9 -10 -127.4 0 -135L0 0Z" fill="#95ecfd"></path></g><g transform="translate(0, 0)"><path d="M405 0C377.8 28.2 350.6 56.4 346.8 92.9C342.9 129.5 362.3 174.4 350.7 202.5C339.1 230.6 296.5 241.8 269.4 269.4C242.3 297 230.7 341 201.5 349C172.3 357 125.5 329 89 332.3C52.5 335.6 26.3 370.3 0 405L0 0Z" fill="#e7faff"></path><path d="M270 0C251.9 18.8 233.8 37.6 231.2 61.9C228.6 86.3 241.6 116.3 233.8 135C226.1 153.7 197.7 161.2 179.6 179.6C161.5 198 153.8 227.4 134.3 232.7C114.9 238 83.7 219.3 59.4 221.5C35 223.7 17.5 246.9 0 270L0 0Z" fill="#b3f1fe"></path><path d="M135 0C125.9 9.4 116.9 18.8 115.6 31C114.3 43.2 120.8 58.1 116.9 67.5C113 76.9 98.8 80.6 89.8 89.8C80.8 99 76.9 113.7 67.2 116.3C57.4 119 41.8 109.7 29.7 110.8C17.5 111.9 8.8 123.4 0 135L0 0Z" fill="#95ecfd"></path></g></svg>