<?xml version="1.0" encoding="UTF-8" standalone="no"?>
<!DOCTYPE svg PUBLIC "-//W3C//DTD SVG 20010904//EN"
              "http://www.w3.org/TR/2001/REC-SVG-20010904/DTD/svg10.dtd">

<svg xmlns="http://www.w3.org/2000/svg"
     width="12.6096in" height="9.17766in"
     viewBox="0 0 812 591">
  <path id="Selection"
        fill="none" stroke="black" stroke-width="1"
        d="M 493.00,398.44
           C 510.09,397.30 502.50,418.50 500.35,428.00
             500.35,428.00 483.65,505.00 483.65,505.00
             482.35,510.75 481.24,523.83 475.89,526.83
             473.81,527.99 471.31,527.96 469.00,528.00
             469.00,528.00 462.00,528.00 462.00,528.00
             462.00,528.00 451.00,527.09 451.00,527.09
             451.00,527.09 428.00,526.00 428.00,526.00
             428.00,526.00 398.00,524.00 398.00,524.00
             398.00,524.00 385.00,523.00 385.00,523.00
             385.00,523.00 376.00,523.00 376.00,523.00
             376.00,523.00 366.00,522.00 366.00,522.00
             361.53,521.95 356.86,521.43 353.17,524.43
             347.17,529.32 341.73,544.03 332.04,539.99
             324.30,536.76 327.63,527.80 324.26,523.21
             319.85,517.21 313.05,521.05 308.74,514.89
             306.66,511.93 304.95,499.22 304.25,495.00
             304.25,495.00 296.75,453.00 296.75,453.00
             296.75,453.00 292.92,431.00 292.92,431.00
             292.17,426.27 291.73,422.17 296.21,419.01
             299.25,416.86 309.70,415.72 313.81,415.44
             313.81,415.44 348.00,412.27 348.00,412.27
             348.00,412.27 378.00,409.27 378.00,409.27
             378.00,409.27 454.00,402.17 454.00,402.17
             454.00,402.17 493.00,398.44 493.00,398.44 Z" />
</svg>
