<svg id="exp2kVRHGzw1" xmlns="http://www.w3.org/2000/svg" xmlns:xlink="http://www.w3.org/1999/xlink" viewBox="0 0 256 256" shape-rendering="geometricPrecision" text-rendering="geometricPrecision"><g transform="translate(-.000006 0.000004)"><g style="mix-blend-mode:overlay" transform="matrix(1.015085 0 0 1.015269-1.930876-1.954432)" paint-order="fill markers stroke"><path d="M6.81657,249.18343v-242.36686h242.36686v242.36686Z" transform="matrix(1.040553 0 0 1.040365-5.190784-5.16672)" fill="none" stroke="#000" stroke-width="6" stroke-miterlimit="10"/></g><g transform="matrix(.693598 0 0 0.655747 39.219468 44.064397)"><g transform="matrix(10.6667 0 0 10.6667 0.000001 0.000001)"><path d="M8,3C5.239,3,3,5.239,3,8v8c0,2.761,2.239,5,5,5h8c2.761,0,5-2.239,5-5v-8c0-2.761-2.239-5-5-5ZM18,5c.552,0,1,.448,1,1s-.448,1-1,1-1-.448-1-1s.448-1,1-1ZM12,7c2.761,0,5,2.239,5,5s-2.239,5-5,5-5-2.239-5-5s2.239-5,5-5Zm0,2c-1.65685,0-3,1.34315-3,3s1.34315,3,3,3s3-1.34315,3-3-1.34315-3-3-3Z" stroke-miterlimit="10"/></g></g></g></svg>
