<svg id="visual" viewBox="0 0 960 540" width="960" height="540" xmlns="http://www.w3.org/2000/svg" xmlns:xlink="http://www.w3.org/1999/xlink" version="1.1"><g stroke-width="1" stroke-linejoin="bevel"><path d="M480 308.6L400 308.6L480 385.7Z" fill="#adf0fd" stroke="#adf0fd"></path><path d="M400 308.6L400 385.7L480 385.7Z" fill="#f6fdff" stroke="#f6fdff"></path><path d="M480 308.6L400 231.4L400 308.6Z" fill="#a2eefd" stroke="#a2eefd"></path><path d="M480 308.6L480 231.4L400 231.4Z" fill="#b9f2fe" stroke="#b9f2fe"></path><path d="M400 385.7L480 462.9L480 385.7Z" fill="#cef6fe" stroke="#cef6fe"></path><path d="M400 385.7L400 462.9L480 462.9Z" fill="#a2eefd" stroke="#a2eefd"></path><path d="M400 231.4L320 308.6L400 308.6Z" fill="#ecfbff" stroke="#ecfbff"></path><path d="M400 308.6L320 308.6L400 385.7Z" fill="#cef6fe" stroke="#cef6fe"></path><path d="M400 385.7L320 385.7L400 462.9Z" fill="#95ecfd" stroke="#95ecfd"></path><path d="M480 462.9L560 385.7L480 385.7Z" fill="#adf0fd" stroke="#adf0fd"></path><path d="M480 385.7L560 385.7L480 308.6Z" fill="#ffffff" stroke="#ffffff"></path><path d="M480 308.6L560 308.6L480 231.4Z" fill="#95ecfd" stroke="#95ecfd"></path><path d="M320 308.6L320 385.7L400 385.7Z" fill="#b9f2fe" stroke="#b9f2fe"></path><path d="M560 385.7L560 308.6L480 308.6Z" fill="#cef6fe" stroke="#cef6fe"></path><path d="M400 231.4L320 231.4L320 308.6Z" fill="#adf0fd" stroke="#adf0fd"></path><path d="M560 308.6L560 231.4L480 231.4Z" fill="#ffffff" stroke="#ffffff"></path><path d="M480 462.9L560 462.9L560 385.7Z" fill="#adf0fd" stroke="#adf0fd"></path><path d="M320 385.7L320 462.9L400 462.9Z" fill="#d8f8fe" stroke="#d8f8fe"></path><path d="M560 231.4L480 154.3L480 231.4Z" fill="#ffffff" stroke="#ffffff"></path><path d="M480 231.4L480 154.3L400 231.4Z" fill="#ffffff" stroke="#ffffff"></path><path d="M400 231.4L400 154.3L320 231.4Z" fill="#c3f4fe" stroke="#c3f4fe"></path><path d="M480 154.3L400 154.3L400 231.4Z" fill="#a2eefd" stroke="#a2eefd"></path><path d="M400 462.9L480 540L480 462.9Z" fill="#b9f2fe" stroke="#b9f2fe"></path><path d="M480 462.9L480 540L560 462.9Z" fill="#d8f8fe" stroke="#d8f8fe"></path><path d="M400 540L480 540L400 462.9Z" fill="#d8f8fe" stroke="#d8f8fe"></path><path d="M320 462.9L400 540L400 462.9Z" fill="#b9f2fe" stroke="#b9f2fe"></path><path d="M320 308.6L240 385.7L320 385.7Z" fill="#ffffff" stroke="#ffffff"></path><path d="M320 385.7L240 385.7L320 462.9Z" fill="#a2eefd" stroke="#a2eefd"></path><path d="M240 308.6L240 385.7L320 308.6Z" fill="#b9f2fe" stroke="#b9f2fe"></path><path d="M640 385.7L640 308.6L560 385.7Z" fill="#adf0fd" stroke="#adf0fd"></path><path d="M560 385.7L640 308.6L560 308.6Z" fill="#f6fdff" stroke="#f6fdff"></path><path d="M560 308.6L640 308.6L560 231.4Z" fill="#ffffff" stroke="#ffffff"></path><path d="M560 462.9L640 385.7L560 385.7Z" fill="#a2eefd" stroke="#a2eefd"></path><path d="M320 231.4L240 308.6L320 308.6Z" fill="#ecfbff" stroke="#ecfbff"></path><path d="M400 154.3L320 154.3L320 231.4Z" fill="#b9f2fe" stroke="#b9f2fe"></path><path d="M320 231.4L240 231.4L240 308.6Z" fill="#ecfbff" stroke="#ecfbff"></path><path d="M560 231.4L560 154.3L480 154.3Z" fill="#cef6fe" stroke="#cef6fe"></path><path d="M640 231.4L560 154.3L560 231.4Z" fill="#f6fdff" stroke="#f6fdff"></path><path d="M240 462.9L320 540L320 462.9Z" fill="#c3f4fe" stroke="#c3f4fe"></path><path d="M320 462.9L320 540L400 540Z" fill="#a2eefd" stroke="#a2eefd"></path><path d="M480 540L560 540L560 462.9Z" fill="#cef6fe" stroke="#cef6fe"></path><path d="M560 462.9L640 462.9L640 385.7Z" fill="#d8f8fe" stroke="#d8f8fe"></path><path d="M320 154.3L240 231.4L320 231.4Z" fill="#b9f2fe" stroke="#b9f2fe"></path><path d="M640 308.6L640 231.4L560 231.4Z" fill="#f6fdff" stroke="#f6fdff"></path><path d="M560 540L640 462.9L560 462.9Z" fill="#a2eefd" stroke="#a2eefd"></path><path d="M240 385.7L240 462.9L320 462.9Z" fill="#ffffff" stroke="#ffffff"></path><path d="M480 154.3L400 77.1L400 154.3Z" fill="#f6fdff" stroke="#f6fdff"></path><path d="M400 154.3L400 77.1L320 154.3Z" fill="#ecfbff" stroke="#ecfbff"></path><path d="M480 77.1L400 77.1L480 154.3Z" fill="#95ecfd" stroke="#95ecfd"></path><path d="M560 154.3L480 77.1L480 154.3Z" fill="#c3f4fe" stroke="#c3f4fe"></path><path d="M320 77.1L240 154.3L320 154.3Z" fill="#ecfbff" stroke="#ecfbff"></path><path d="M320 154.3L240 154.3L240 231.4Z" fill="#e2fafe" stroke="#e2fafe"></path><path d="M640 231.4L640 154.3L560 154.3Z" fill="#ecfbff" stroke="#ecfbff"></path><path d="M560 154.3L560 77.1L480 77.1Z" fill="#b9f2fe" stroke="#b9f2fe"></path><path d="M240 462.9L240 540L320 540Z" fill="#c3f4fe" stroke="#c3f4fe"></path><path d="M560 540L640 540L640 462.9Z" fill="#f6fdff" stroke="#f6fdff"></path><path d="M240 231.4L160 308.6L240 308.6Z" fill="#e2fafe" stroke="#e2fafe"></path><path d="M240 308.6L160 308.6L240 385.7Z" fill="#95ecfd" stroke="#95ecfd"></path><path d="M240 385.7L160 385.7L240 462.9Z" fill="#ecfbff" stroke="#ecfbff"></path><path d="M240 462.9L160 462.9L240 540Z" fill="#a2eefd" stroke="#a2eefd"></path><path d="M160 231.4L160 308.6L240 231.4Z" fill="#ecfbff" stroke="#ecfbff"></path><path d="M640 385.7L720 385.7L640 308.6Z" fill="#ffffff" stroke="#ffffff"></path><path d="M640 308.6L720 308.6L640 231.4Z" fill="#adf0fd" stroke="#adf0fd"></path><path d="M640 231.4L720 231.4L640 154.3Z" fill="#a2eefd" stroke="#a2eefd"></path><path d="M640 462.9L720 385.7L640 385.7Z" fill="#a2eefd" stroke="#a2eefd"></path><path d="M720 462.9L720 385.7L640 462.9Z" fill="#adf0fd" stroke="#adf0fd"></path><path d="M720 385.7L720 308.6L640 308.6Z" fill="#ecfbff" stroke="#ecfbff"></path><path d="M160 308.6L160 385.7L240 385.7Z" fill="#c3f4fe" stroke="#c3f4fe"></path><path d="M640 154.3L560 77.1L560 154.3Z" fill="#c3f4fe" stroke="#c3f4fe"></path><path d="M400 77.1L320 77.1L320 154.3Z" fill="#b9f2fe" stroke="#b9f2fe"></path><path d="M720 308.6L720 231.4L640 231.4Z" fill="#e2fafe" stroke="#e2fafe"></path><path d="M240 154.3L160 231.4L240 231.4Z" fill="#b9f2fe" stroke="#b9f2fe"></path><path d="M160 385.7L160 462.9L240 462.9Z" fill="#adf0fd" stroke="#adf0fd"></path><path d="M640 540L720 462.9L640 462.9Z" fill="#ffffff" stroke="#ffffff"></path><path d="M320 77.1L240 77.1L240 154.3Z" fill="#a2eefd" stroke="#a2eefd"></path><path d="M240 154.3L160 154.3L160 231.4Z" fill="#ecfbff" stroke="#ecfbff"></path><path d="M640 154.3L640 77.1L560 77.1Z" fill="#c3f4fe" stroke="#c3f4fe"></path><path d="M720 154.3L640 77.1L640 154.3Z" fill="#e2fafe" stroke="#e2fafe"></path><path d="M720 231.4L720 154.3L640 154.3Z" fill="#cef6fe" stroke="#cef6fe"></path><path d="M240 77.1L160 154.3L240 154.3Z" fill="#ffffff" stroke="#ffffff"></path><path d="M640 540L720 540L720 462.9Z" fill="#b9f2fe" stroke="#b9f2fe"></path><path d="M160 462.9L160 540L240 540Z" fill="#ecfbff" stroke="#ecfbff"></path><path d="M560 0L480 0L560 77.1Z" fill="#c3f4fe" stroke="#c3f4fe"></path><path d="M560 77.1L480 0L480 77.1Z" fill="#e2fafe" stroke="#e2fafe"></path><path d="M480 77.1L480 0L400 77.1Z" fill="#d8f8fe" stroke="#d8f8fe"></path><path d="M400 77.1L400 0L320 77.1Z" fill="#c3f4fe" stroke="#c3f4fe"></path><path d="M320 77.1L320 0L240 77.1Z" fill="#adf0fd" stroke="#adf0fd"></path><path d="M480 0L400 0L400 77.1Z" fill="#adf0fd" stroke="#adf0fd"></path><path d="M720 385.7L800 385.7L720 308.6Z" fill="#b9f2fe" stroke="#b9f2fe"></path><path d="M720 308.6L800 308.6L720 231.4Z" fill="#a2eefd" stroke="#a2eefd"></path><path d="M720 231.4L800 231.4L720 154.3Z" fill="#c3f4fe" stroke="#c3f4fe"></path><path d="M720 462.9L800 385.7L720 385.7Z" fill="#adf0fd" stroke="#adf0fd"></path><path d="M800 462.9L800 385.7L720 462.9Z" fill="#cef6fe" stroke="#cef6fe"></path><path d="M160 385.7L80 385.7L160 462.9Z" fill="#adf0fd" stroke="#adf0fd"></path><path d="M160 462.9L80 462.9L160 540Z" fill="#95ecfd" stroke="#95ecfd"></path><path d="M160 308.6L80 385.7L160 385.7Z" fill="#cef6fe" stroke="#cef6fe"></path><path d="M80 308.6L80 385.7L160 308.6Z" fill="#f6fdff" stroke="#f6fdff"></path><path d="M80 308.6L160 308.6L160 231.4Z" fill="#95ecfd" stroke="#95ecfd"></path><path d="M800 385.7L800 308.6L720 308.6Z" fill="#a2eefd" stroke="#a2eefd"></path><path d="M80 231.4L80 308.6L160 231.4Z" fill="#ffffff" stroke="#ffffff"></path><path d="M400 0L320 0L320 77.1Z" fill="#b9f2fe" stroke="#b9f2fe"></path><path d="M640 77.1L560 0L560 77.1Z" fill="#ffffff" stroke="#ffffff"></path><path d="M720 540L800 462.9L720 462.9Z" fill="#b9f2fe" stroke="#b9f2fe"></path><path d="M800 308.6L800 231.4L720 231.4Z" fill="#ecfbff" stroke="#ecfbff"></path><path d="M160 154.3L80 231.4L160 231.4Z" fill="#ffffff" stroke="#ffffff"></path><path d="M80 385.7L80 462.9L160 462.9Z" fill="#adf0fd" stroke="#adf0fd"></path><path d="M800 154.3L720 77.1L720 154.3Z" fill="#95ecfd" stroke="#95ecfd"></path><path d="M720 154.3L720 77.1L640 77.1Z" fill="#f6fdff" stroke="#f6fdff"></path><path d="M640 77.1L640 0L560 0Z" fill="#adf0fd" stroke="#adf0fd"></path><path d="M240 77.1L160 77.1L160 154.3Z" fill="#a2eefd" stroke="#a2eefd"></path><path d="M160 154.3L80 154.3L80 231.4Z" fill="#f6fdff" stroke="#f6fdff"></path><path d="M240 0L160 77.1L240 77.1Z" fill="#b9f2fe" stroke="#b9f2fe"></path><path d="M320 0L240 0L240 77.1Z" fill="#f6fdff" stroke="#f6fdff"></path><path d="M720 77.1L640 0L640 77.1Z" fill="#c3f4fe" stroke="#c3f4fe"></path><path d="M80 462.9L80 540L160 540Z" fill="#a2eefd" stroke="#a2eefd"></path><path d="M160 77.1L80 154.3L160 154.3Z" fill="#b9f2fe" stroke="#b9f2fe"></path><path d="M800 231.4L800 154.3L720 154.3Z" fill="#adf0fd" stroke="#adf0fd"></path><path d="M720 540L800 540L800 462.9Z" fill="#c3f4fe" stroke="#c3f4fe"></path><path d="M800 385.7L880 308.6L800 308.6Z" fill="#95ecfd" stroke="#95ecfd"></path><path d="M800 308.6L880 308.6L800 231.4Z" fill="#ffffff" stroke="#ffffff"></path><path d="M800 231.4L880 231.4L800 154.3Z" fill="#cef6fe" stroke="#cef6fe"></path><path d="M880 385.7L880 308.6L800 385.7Z" fill="#ecfbff" stroke="#ecfbff"></path><path d="M880 385.7L800 385.7L800 462.9Z" fill="#adf0fd" stroke="#adf0fd"></path><path d="M80 385.7L0 385.7L80 462.9Z" fill="#ffffff" stroke="#ffffff"></path><path d="M80 462.9L0 462.9L80 540Z" fill="#cef6fe" stroke="#cef6fe"></path><path d="M80 308.6L0 385.7L80 385.7Z" fill="#adf0fd" stroke="#adf0fd"></path><path d="M0 308.6L0 385.7L80 308.6Z" fill="#cef6fe" stroke="#cef6fe"></path><path d="M0 308.6L80 308.6L80 231.4Z" fill="#e2fafe" stroke="#e2fafe"></path><path d="M0 231.4L0 308.6L80 231.4Z" fill="#d8f8fe" stroke="#d8f8fe"></path><path d="M880 462.9L880 385.7L800 462.9Z" fill="#adf0fd" stroke="#adf0fd"></path><path d="M240 0L160 0L160 77.1Z" fill="#d8f8fe" stroke="#d8f8fe"></path><path d="M160 77.1L80 77.1L80 154.3Z" fill="#adf0fd" stroke="#adf0fd"></path><path d="M720 77.1L720 0L640 0Z" fill="#cef6fe" stroke="#cef6fe"></path><path d="M800 77.1L720 0L720 77.1Z" fill="#cef6fe" stroke="#cef6fe"></path><path d="M160 0L80 77.1L160 77.1Z" fill="#c3f4fe" stroke="#c3f4fe"></path><path d="M80 154.3L0 231.4L80 231.4Z" fill="#e2fafe" stroke="#e2fafe"></path><path d="M880 154.3L800 77.1L800 154.3Z" fill="#c3f4fe" stroke="#c3f4fe"></path><path d="M800 154.3L800 77.1L720 77.1Z" fill="#adf0fd" stroke="#adf0fd"></path><path d="M0 385.7L0 462.9L80 462.9Z" fill="#ecfbff" stroke="#ecfbff"></path><path d="M800 540L880 462.9L800 462.9Z" fill="#b9f2fe" stroke="#b9f2fe"></path><path d="M880 308.6L880 231.4L800 231.4Z" fill="#f6fdff" stroke="#f6fdff"></path><path d="M0 154.3L0 231.4L80 154.3Z" fill="#ecfbff" stroke="#ecfbff"></path><path d="M800 540L880 540L880 462.9Z" fill="#f6fdff" stroke="#f6fdff"></path><path d="M0 462.9L0 540L80 540Z" fill="#ecfbff" stroke="#ecfbff"></path><path d="M80 77.1L0 154.3L80 154.3Z" fill="#adf0fd" stroke="#adf0fd"></path><path d="M880 231.4L880 154.3L800 154.3Z" fill="#ffffff" stroke="#ffffff"></path><path d="M880 77.1L800 0L800 77.1Z" fill="#cef6fe" stroke="#cef6fe"></path><path d="M800 77.1L800 0L720 0Z" fill="#95ecfd" stroke="#95ecfd"></path><path d="M160 0L80 0L80 77.1Z" fill="#f6fdff" stroke="#f6fdff"></path><path d="M80 77.1L0 77.1L0 154.3Z" fill="#e2fafe" stroke="#e2fafe"></path><path d="M80 0L0 77.1L80 77.1Z" fill="#ffffff" stroke="#ffffff"></path><path d="M880 154.3L880 77.1L800 77.1Z" fill="#a2eefd" stroke="#a2eefd"></path><path d="M880 385.7L960 385.7L880 308.6Z" fill="#ecfbff" stroke="#ecfbff"></path><path d="M880 308.6L960 308.6L880 231.4Z" fill="#c3f4fe" stroke="#c3f4fe"></path><path d="M880 231.4L960 231.4L880 154.3Z" fill="#a2eefd" stroke="#a2eefd"></path><path d="M880 154.3L960 154.3L880 77.1Z" fill="#e2fafe" stroke="#e2fafe"></path><path d="M880 462.9L960 385.7L880 385.7Z" fill="#c3f4fe" stroke="#c3f4fe"></path><path d="M960 462.9L960 385.7L880 462.9Z" fill="#ecfbff" stroke="#ecfbff"></path><path d="M960 385.7L960 308.6L880 308.6Z" fill="#95ecfd" stroke="#95ecfd"></path><path d="M880 540L960 462.9L880 462.9Z" fill="#f6fdff" stroke="#f6fdff"></path><path d="M960 308.6L960 231.4L880 231.4Z" fill="#adf0fd" stroke="#adf0fd"></path><path d="M880 540L960 540L960 462.9Z" fill="#d8f8fe" stroke="#d8f8fe"></path><path d="M960 231.4L960 154.3L880 154.3Z" fill="#d8f8fe" stroke="#d8f8fe"></path><path d="M960 77.1L880 0L880 77.1Z" fill="#a2eefd" stroke="#a2eefd"></path><path d="M880 77.1L880 0L800 0Z" fill="#e2fafe" stroke="#e2fafe"></path><path d="M80 0L0 0L0 77.1Z" fill="#c3f4fe" stroke="#c3f4fe"></path><path d="M960 154.3L960 77.1L880 77.1Z" fill="#ecfbff" stroke="#ecfbff"></path><path d="M960 77.1L960 0L880 0Z" fill="#f6fdff" stroke="#f6fdff"></path></g></svg>