<svg width="104" height="50" viewBox="0 0 104 50" fill="none" xmlns="http://www.w3.org/2000/svg">
<path d="M102.072 48.2143L103.857 46.4286V50L102.072 48.2143Z" fill="#95ECFD"/>
<path d="M103.857 14.2857V17.8571L98.5002 23.2143L100.286 25L98.5002 26.7857L103.857 32.1429V35.7143L96.7145 28.5714L91.3573 33.9286L98.5002 41.0714L96.7145 42.8571L89.5716 35.7143L84.2145 41.0714L91.3573 48.2143L89.5716 50L82.4288 42.8571L75.2859 50L59.2145 33.9286L43.1431 50L34.2145 41.0714L44.9288 30.3571L46.7145 32.1429L37.7859 41.0714L43.1431 46.4286L57.4288 32.1429L44.9288 19.6428L28.8574 35.7143L19.9288 26.7857L30.643 16.0714L32.4288 17.8571L23.5002 26.7857L28.8574 32.1429L43.1431 17.8571L28.8574 3.57143L7.42875 25L30.643 48.2143L28.8574 50L21.7145 42.8571L14.5716 50L12.7859 48.2143L19.9288 41.0714L14.5716 35.7143L7.42875 42.8571L5.64307 41.0714L12.7859 33.9286L7.42875 28.5714L0.285889 35.7143V32.1429L5.64307 26.7857L3.85738 25L5.64307 23.2143L0.285889 17.8571V14.2857L7.42875 21.4286L12.7859 16.0714L5.64307 8.92858L7.42875 7.14287L14.5716 14.2857L19.9288 8.92858L12.7859 1.78572L14.5716 0L21.7145 7.14287L28.8574 0L44.9288 16.0714L61.0002 0L69.9287 8.92858L59.2145 19.6428L57.4288 17.8571L66.3574 8.92858L61.0002 3.57143L46.7145 17.8571L59.2145 30.3571L75.2859 14.2857L84.2145 23.2143L73.5002 33.9286L71.7145 32.1429L80.6431 23.2143L75.2859 17.8571L61.0002 32.1429L75.2859 46.4286L96.7145 25L73.5002 1.78572L75.2859 0L82.4288 7.14287L89.5716 0L91.3573 1.78572L84.2145 8.92858L89.5716 14.2857L96.7145 7.14287L98.5002 8.92858L91.3573 16.0714L96.7145 21.4286L103.857 14.2857Z" fill="#95ECFD"/>
<path d="M57.4288 46.4286L59.2145 44.6428L61.0002 46.4286L59.2145 48.2143L57.4288 46.4286Z" fill="#95ECFD"/>
<path d="M102.072 1.78572L103.857 0V3.57143L102.072 1.78572Z" fill="#95ECFD"/>
<path d="M0.285889 50L2.0717 48.2143L0.285889 46.4286V50Z" fill="#95ECFD"/>
<path d="M43.1431 3.57143L44.9288 1.78572L46.7145 3.57143L44.9288 5.35715L43.1431 3.57143Z" fill="#95ECFD"/>
<path d="M0.285889 3.57143L2.0717 1.78572L0.285889 0V3.57143Z" fill="#95ECFD"/>
</svg>
