<svg width="104" height="50" viewBox="0 0 104 50" fill="none" xmlns="http://www.w3.org/2000/svg">
<path d="M101.786 48.2143L103.571 46.4286V50L101.786 48.2143Z" fill="white"/>
<path d="M103.571 14.2857V17.8571L98.2143 23.2143L100 25L98.2143 26.7857L103.571 32.1429V35.7143L96.4286 28.5714L91.0714 33.9286L98.2143 41.0714L96.4286 42.8571L89.2858 35.7143L83.9286 41.0714L91.0714 48.2143L89.2858 50L82.1429 42.8571L75 50L58.9286 33.9286L42.8572 50L33.9286 41.0714L44.6429 30.3571L46.4286 32.1429L37.5 41.0714L42.8572 46.4286L57.1429 32.1429L44.6429 19.6428L28.5715 35.7143L19.6429 26.7857L30.3571 16.0714L32.143 17.8571L23.2143 26.7857L28.5715 32.1429L42.8572 17.8571L28.5715 3.57143L7.14287 25L30.3571 48.2143L28.5715 50L21.4286 42.8571L14.2857 50L12.5 48.2143L19.6429 41.0714L14.2857 35.7143L7.14287 42.8571L5.35718 41.0714L12.5 33.9286L7.14287 28.5714L0 35.7143V32.1429L5.35718 26.7857L3.5715 25L5.35718 23.2143L0 17.8571V14.2857L7.14287 21.4286L12.5 16.0714L5.35718 8.92858L7.14287 7.14287L14.2857 14.2857L19.6429 8.92858L12.5 1.78572L14.2857 0L21.4286 7.14287L28.5715 0L44.6429 16.0714L60.7143 0L69.6428 8.92858L58.9286 19.6428L57.1429 17.8571L66.0715 8.92858L60.7143 3.57143L46.4286 17.8571L58.9286 30.3571L75 14.2857L83.9286 23.2143L73.2143 33.9286L71.4287 32.1429L80.3572 23.2143L75 17.8571L60.7143 32.1429L75 46.4286L96.4286 25L73.2143 1.78572L75 0L82.1429 7.14287L89.2858 0L91.0714 1.78572L83.9286 8.92858L89.2858 14.2857L96.4286 7.14287L98.2143 8.92858L91.0714 16.0714L96.4286 21.4286L103.571 14.2857Z" fill="white"/>
<path d="M57.1429 46.4286L58.9286 44.6428L60.7143 46.4286L58.9286 48.2143L57.1429 46.4286Z" fill="white"/>
<path d="M101.786 1.78572L103.571 0V3.57143L101.786 1.78572Z" fill="white"/>
<path d="M0 50L1.78581 48.2143L0 46.4286V50Z" fill="white"/>
<path d="M42.8572 3.57143L44.6429 1.78572L46.4286 3.57143L44.6429 5.35715L42.8572 3.57143Z" fill="white"/>
<path d="M0 3.57143L1.78581 1.78572L0 0V3.57143Z" fill="white"/>
</svg>
