<svg id="visual" viewBox="0 0 960 540" width="960" height="540" xmlns="http://www.w3.org/2000/svg" xmlns:xlink="http://www.w3.org/1999/xlink" version="1.1"><rect x="0" y="0" width="960" height="540" fill="#000000"></rect><defs><linearGradient id="grad1_0" x1="43.8%" y1="100%" x2="100%" y2="0%"><stop offset="14.444444444444446%" stop-color="#95ecfd" stop-opacity="1"></stop><stop offset="85.55555555555554%" stop-color="#95ecfd" stop-opacity="1"></stop></linearGradient></defs><defs><linearGradient id="grad1_1" x1="43.8%" y1="100%" x2="100%" y2="0%"><stop offset="14.444444444444446%" stop-color="#95ecfd" stop-opacity="1"></stop><stop offset="85.55555555555554%" stop-color="#007483" stop-opacity="1"></stop></linearGradient></defs><defs><linearGradient id="grad1_2" x1="43.8%" y1="100%" x2="100%" y2="0%"><stop offset="14.444444444444446%" stop-color="#000000" stop-opacity="1"></stop><stop offset="85.55555555555554%" stop-color="#007483" stop-opacity="1"></stop></linearGradient></defs><defs><linearGradient id="grad2_0" x1="0%" y1="100%" x2="56.3%" y2="0%"><stop offset="14.444444444444446%" stop-color="#95ecfd" stop-opacity="1"></stop><stop offset="85.55555555555554%" stop-color="#95ecfd" stop-opacity="1"></stop></linearGradient></defs><defs><linearGradient id="grad2_1" x1="0%" y1="100%" x2="56.3%" y2="0%"><stop offset="14.444444444444446%" stop-color="#007483" stop-opacity="1"></stop><stop offset="85.55555555555554%" stop-color="#95ecfd" stop-opacity="1"></stop></linearGradient></defs><defs><linearGradient id="grad2_2" x1="0%" y1="100%" x2="56.3%" y2="0%"><stop offset="14.444444444444446%" stop-color="#007483" stop-opacity="1"></stop><stop offset="85.55555555555554%" stop-color="#000000" stop-opacity="1"></stop></linearGradient></defs><g transform="translate(960, 540)"><path d="M-432 0C-432 -25.3 -432 -50.6 -425.4 -75C-418.9 -99.5 -405.8 -123.1 -387.2 -140.9C-368.5 -158.8 -344.2 -170.9 -335.2 -193.5C-326.1 -216.1 -332.3 -249.2 -323.3 -271.3C-314.3 -293.3 -290.1 -304.3 -271.3 -323.3C-252.4 -342.2 -239 -369.1 -214 -370.7C-189 -372.2 -152.5 -348.6 -127.6 -350.5C-102.7 -352.4 -89.5 -380 -70.2 -397.9C-50.8 -415.7 -25.4 -423.9 0 -432L0 0Z" fill="#003e4d"></path><path d="M-288 0C-288 -16.9 -288 -33.7 -283.6 -50C-279.3 -66.3 -270.6 -82 -258.1 -93.9C-245.7 -105.8 -229.5 -113.9 -223.4 -129C-217.4 -144.1 -221.5 -166.1 -215.5 -180.8C-209.5 -195.5 -193.4 -202.9 -180.8 -215.5C-168.3 -228.1 -159.3 -246 -142.7 -247.1C-126 -248.2 -101.6 -232.4 -85 -233.7C-68.5 -235 -59.6 -253.3 -46.8 -265.2C-33.9 -277.1 -16.9 -282.6 0 -288L0 0Z" fill="#55aebe"></path><path d="M-144 0C-144 -8.4 -144 -16.9 -141.8 -25C-139.6 -33.2 -135.3 -41 -129.1 -47C-122.8 -52.9 -114.7 -57 -111.7 -64.5C-108.7 -72 -110.8 -83.1 -107.8 -90.4C-104.8 -97.8 -96.7 -101.4 -90.4 -107.8C-84.1 -114.1 -79.7 -123 -71.3 -123.6C-63 -124.1 -50.8 -116.2 -42.5 -116.8C-34.2 -117.5 -29.8 -126.7 -23.4 -132.6C-16.9 -138.6 -8.5 -141.3 0 -144L0 0Z" fill="#95ecfd"></path></g><g transform="translate(0, 0)"><path d="M432 0C422 23.9 412 47.9 402.8 71C393.6 94.2 385.3 116.5 371.2 135.1C357.1 153.7 337.1 168.4 323.9 187C310.7 205.6 304.1 228 291.1 244.3C278.1 260.5 258.5 270.5 247.5 294.9C236.4 319.3 233.8 358.1 216 374.1C198.2 390.2 165.1 383.5 137.8 378.7C110.5 373.9 89 370.9 67 380.1C45 389.3 22.5 410.7 0 432L0 0Z" fill="#003e4d"></path><path d="M288 0C281.3 16 274.6 31.9 268.5 47.3C262.4 62.8 256.9 77.7 247.5 90.1C238 102.4 224.8 112.3 215.9 124.7C207.1 137.1 202.8 152 194.1 162.8C185.4 173.7 172.4 180.4 165 196.6C157.6 212.9 155.9 238.7 144 249.4C132.1 260.1 110.1 255.7 91.9 252.5C73.7 249.3 59.4 247.3 44.7 253.4C30 259.6 15 273.8 0 288L0 0Z" fill="#55aebe"></path><path d="M144 0C140.7 8 137.3 16 134.3 23.7C131.2 31.4 128.4 38.8 123.7 45C119 51.2 112.4 56.1 108 62.3C103.6 68.5 101.4 76 97 81.4C92.7 86.8 86.2 90.2 82.5 98.3C78.8 106.4 77.9 119.4 72 124.7C66.1 130.1 55 127.8 45.9 126.2C36.8 124.6 29.7 123.6 22.3 126.7C15 129.8 7.5 136.9 0 144L0 0Z" fill="#95ecfd"></path></g></svg>