<?xml version="1.0" standalone="no"?><svg xmlns="http://www.w3.org/2000/svg" viewBox="0 0 1440 320"><path fill="#95ECFD" fill-opacity="1" d="M0,192L8.6,192C17.1,192,34,192,51,165.3C68.6,139,86,85,103,101.3C120,117,137,203,154,250.7C171.4,299,189,309,206,272C222.9,235,240,149,257,101.3C274.3,53,291,43,309,58.7C325.7,75,343,117,360,117.3C377.1,117,394,75,411,80C428.6,85,446,139,463,138.7C480,139,497,85,514,58.7C531.4,32,549,32,566,64C582.9,96,600,160,617,176C634.3,192,651,160,669,138.7C685.7,117,703,107,720,90.7C737.1,75,754,53,771,80C788.6,107,806,181,823,224C840,267,857,277,874,261.3C891.4,245,909,203,926,208C942.9,213,960,267,977,266.7C994.3,267,1011,213,1029,202.7C1045.7,192,1063,224,1080,218.7C1097.1,213,1114,171,1131,149.3C1148.6,128,1166,128,1183,106.7C1200,85,1217,43,1234,48C1251.4,53,1269,107,1286,128C1302.9,149,1320,139,1337,117.3C1354.3,96,1371,64,1389,58.7C1405.7,53,1423,75,1431,85.3L1440,96L1440,0L1431.4,0C1422.9,0,1406,0,1389,0C1371.4,0,1354,0,1337,0C1320,0,1303,0,1286,0C1268.6,0,1251,0,1234,0C1217.1,0,1200,0,1183,0C1165.7,0,1149,0,1131,0C1114.3,0,1097,0,1080,0C1062.9,0,1046,0,1029,0C1011.4,0,994,0,977,0C960,0,943,0,926,0C908.6,0,891,0,874,0C857.1,0,840,0,823,0C805.7,0,789,0,771,0C754.3,0,737,0,720,0C702.9,0,686,0,669,0C651.4,0,634,0,617,0C600,0,583,0,566,0C548.6,0,531,0,514,0C497.1,0,480,0,463,0C445.7,0,429,0,411,0C394.3,0,377,0,360,0C342.9,0,326,0,309,0C291.4,0,274,0,257,0C240,0,223,0,206,0C188.6,0,171,0,154,0C137.1,0,120,0,103,0C85.7,0,69,0,51,0C34.3,0,17,0,9,0L0,0Z"></path></svg>